<svg width="43" height="38" viewBox="0 0 43 38" fill="none" xmlns="http://www.w3.org/2000/svg">
<path d="M26.0694 36.0518H16.6036C16.4898 36.0518 16.3806 36.092 16.3001 36.1637C16.2196 36.2354 16.1744 36.3326 16.1744 36.434C16.1744 36.5354 16.2196 36.6326 16.3001 36.7043C16.3806 36.7759 16.4898 36.8162 16.6036 36.8162H26.0694C26.1833 36.8162 26.2924 36.7759 26.3729 36.7043C26.4534 36.6326 26.4987 36.5354 26.4987 36.434C26.4987 36.3326 26.4534 36.2354 26.3729 36.1637C26.2924 36.092 26.1833 36.0518 26.0694 36.0518Z" fill="#29A354"/>
<path d="M6.2269 22.014C6.22701 21.9638 6.21598 21.914 6.19445 21.8676C6.17291 21.8212 6.1413 21.779 6.10142 21.7435C6.06154 21.708 6.01418 21.6798 5.96205 21.6607C5.90992 21.6415 5.85406 21.6317 5.79766 21.6318H2.01118C1.89734 21.6318 1.78816 21.672 1.70766 21.7437C1.62716 21.8154 1.58194 21.9126 1.58194 22.014C1.58194 22.1154 1.62716 22.2126 1.70766 22.2843C1.78816 22.356 1.89734 22.3962 2.01118 22.3962H5.79766C5.85403 22.3962 5.90984 22.3863 5.96192 22.3671C6.014 22.3479 6.06132 22.3198 6.10118 22.2843C6.14103 22.2488 6.17265 22.2066 6.19422 22.1603C6.21579 22.1139 6.2269 22.0642 6.2269 22.014Z" fill="#29A354"/>
<path d="M8.5323 30.397L5.53179 32.4573C5.4416 32.5193 5.38276 32.6107 5.36823 32.7113C5.35369 32.812 5.38464 32.9136 5.45427 32.9939C5.52391 33.0742 5.62651 33.1266 5.73952 33.1396C5.85253 33.1525 5.96669 33.125 6.05688 33.0629L9.05739 31.0026C9.14758 30.9406 9.20641 30.8493 9.22095 30.7486C9.23548 30.648 9.20453 30.5463 9.1349 30.466C9.06527 30.3857 8.96266 30.3333 8.84965 30.3204C8.73664 30.3074 8.62249 30.335 8.5323 30.397Z" fill="#29A354"/>
<path d="M5.56344 12.6914L8.4806 14.8438C8.52405 14.8758 8.57416 14.8999 8.62807 14.9146C8.68197 14.9294 8.73862 14.9346 8.79477 14.9299C8.85092 14.9252 8.90547 14.9106 8.95532 14.8871C9.00517 14.8636 9.04933 14.8316 9.08529 14.7929C9.12124 14.7542 9.14829 14.7096 9.16488 14.6616C9.18147 14.6136 9.18728 14.5632 9.18197 14.5132C9.17667 14.4632 9.16036 14.4146 9.13398 14.3702C9.10759 14.3258 9.07165 14.2865 9.02819 14.2545L6.11103 12.1058C6.02286 12.0504 5.91448 12.0266 5.80748 12.0392C5.70048 12.0517 5.60271 12.0997 5.53365 12.1735C5.46459 12.2474 5.42931 12.3417 5.43483 12.4377C5.44035 12.5336 5.48627 12.6242 5.56344 12.6914Z" fill="#29A354"/>
<path d="M40.6628 21.6318H36.8763C36.7624 21.6318 36.6533 21.672 36.5728 21.7437C36.4923 21.8154 36.4471 21.9126 36.4471 22.014C36.4471 22.1154 36.4923 22.2126 36.5728 22.2843C36.6533 22.356 36.7624 22.3962 36.8763 22.3962H40.6628C40.7766 22.3962 40.8858 22.356 40.9663 22.2843C41.0468 22.2126 41.092 22.1154 41.092 22.014C41.092 21.9126 41.0468 21.8154 40.9663 21.7437C40.8858 21.672 40.7766 21.6318 40.6628 21.6318Z" fill="#29A354"/>
<path d="M37.1388 32.4573L34.1383 30.397C34.0936 30.3663 34.0426 30.3437 33.9882 30.3306C33.9337 30.3174 33.8769 30.314 33.8209 30.3204C33.765 30.3268 33.711 30.343 33.6621 30.3679C33.6131 30.3929 33.5702 30.4263 33.5357 30.466C33.5012 30.5058 33.4759 30.5512 33.4611 30.5997C33.4463 30.6482 33.4424 30.6988 33.4496 30.7486C33.4568 30.7985 33.475 30.8465 33.5031 30.8901C33.5311 30.9337 33.5686 30.9719 33.6132 31.0026L36.6137 33.0629C36.6584 33.0936 36.7094 33.1162 36.7638 33.1294C36.8183 33.1425 36.8751 33.146 36.9311 33.1396C36.987 33.1332 37.041 33.117 37.09 33.092C37.1389 33.067 37.1818 33.0337 37.2163 32.9939C37.2508 32.9542 37.2761 32.9087 37.2909 32.8602C37.3057 32.8118 37.3096 32.7612 37.3024 32.7113C37.2952 32.6615 37.277 32.6134 37.249 32.5698C37.2209 32.5263 37.1835 32.488 37.1388 32.4573Z" fill="#29A354"/>
<path d="M36.3178 16.4981C36.327 16.239 36.3845 13.9427 35.4335 13.0684C35.294 12.9389 35.1229 12.8396 34.9334 12.7782V6.54385C34.933 6.5267 34.9313 6.50959 34.9284 6.49264C34.9288 6.48893 34.9288 6.4852 34.9284 6.4815C34.9221 6.44793 34.9109 6.41525 34.8951 6.38428C34.895 6.3818 34.895 6.37933 34.8951 6.37685C34.878 6.34642 34.8567 6.318 34.8317 6.29224L34.8251 6.28556C34.8126 6.27344 34.7992 6.26204 34.7851 6.25142C34.7703 6.24063 34.7547 6.23071 34.7384 6.22174L34.7284 6.2158C34.7116 6.20671 34.694 6.19877 34.6759 6.19205L21.5036 1.2142C21.4508 1.19456 21.3942 1.18445 21.3369 1.18445C21.2797 1.18445 21.2231 1.19456 21.1703 1.2142L8.00551 6.19279C7.92799 6.22212 7.86186 6.27111 7.81538 6.33367C7.7689 6.39623 7.74411 6.46958 7.74411 6.54459C7.74411 6.6196 7.7689 6.69295 7.81538 6.75551C7.86186 6.81806 7.92799 6.86706 8.00551 6.89638L13.4048 8.93889V15.6557C13.4047 15.7058 13.4157 15.7555 13.4371 15.8019C13.4586 15.8483 13.4902 15.8904 13.5299 15.9259C13.5697 15.9614 13.617 15.9896 13.669 16.0088C13.7211 16.028 13.7768 16.0379 13.8332 16.0379C12.5893 17.0931 11.6436 18.3956 11.0734 19.8387C10.5032 21.2818 10.3248 22.8246 10.5526 24.341C10.7805 25.8573 11.4082 27.304 12.3845 28.5629C13.3607 29.8217 14.6577 30.8569 16.1694 31.5838V33.6804C16.1696 33.7818 16.2149 33.8789 16.2954 33.9505C16.3758 34.0221 16.4849 34.0625 16.5986 34.0627H26.0694C26.1259 34.0627 26.1817 34.0528 26.2339 34.0335C26.286 34.0143 26.3334 33.986 26.3732 33.9505C26.4131 33.9149 26.4447 33.8727 26.4662 33.8262C26.4877 33.7797 26.4988 33.73 26.4987 33.6797C26.4989 33.6512 26.4952 33.6228 26.4878 33.5951V31.5912C28.0022 30.8659 29.302 29.8314 30.2808 28.5724C31.2596 27.3135 31.8894 25.866 32.1187 24.3485C32.3481 22.831 32.1703 21.2867 31.6001 19.8421C31.0299 18.3976 30.0834 17.0939 28.8382 16.0379C28.8946 16.0379 28.9503 16.028 29.0024 16.0088C29.0544 15.9896 29.1017 15.9614 29.1414 15.9259C29.1812 15.8904 29.2128 15.8483 29.2343 15.8019C29.2557 15.7555 29.2667 15.7058 29.2666 15.6557V8.93814L34.0708 7.12498V12.7804C33.8812 12.8416 33.7101 12.9409 33.5707 13.0706C32.6197 13.9449 32.6764 16.2413 32.6864 16.5003C32.6896 16.5997 32.7363 16.6941 32.8164 16.7634C32.8966 16.8327 33.0039 16.8714 33.1156 16.8714H35.8919C36.0035 16.8706 36.1103 16.8313 36.1898 16.7616C36.2693 16.6919 36.3152 16.5974 36.3178 16.4981ZM21.3369 1.98162L32.3913 6.16014H21.3369C21.2231 6.16013 21.1139 6.20041 21.0334 6.27209C20.9529 6.34377 20.9077 6.44099 20.9077 6.54236C20.9077 6.64373 20.9529 6.74096 21.0334 6.81264C21.1139 6.88432 21.2231 6.92459 21.3369 6.92459H32.3913L28.7324 8.31248C28.6912 8.3217 28.6518 8.33646 28.6157 8.35627L21.3369 11.1076L14.0582 8.35478C14.0219 8.335 13.9826 8.32001 13.9415 8.31025L9.27406 6.54459L21.3369 1.98162ZM18.8982 24.1508C17.843 23.8984 17.0379 23.4694 16.5753 22.8935C16.1661 22.3829 16.0752 21.7869 16.3111 21.1701C16.4578 20.7894 16.6778 20.7248 16.8262 20.7248C16.8637 20.7252 16.9011 20.7287 16.9379 20.7352C17.7372 20.8532 18.8982 22.1268 18.8982 23.8524V24.1508ZM22.9206 33.2975H19.7533V25.08C20.8021 25.2054 21.8651 25.2054 22.9139 25.08L22.9206 33.2975ZM31.3612 23.0553C31.366 24.7059 30.8547 26.3251 29.8844 27.7315C28.9142 29.1379 27.5233 30.276 25.8677 31.0182C25.7969 31.0502 25.7375 31.0991 25.696 31.1593C25.6545 31.2196 25.6326 31.2889 25.6327 31.3596V33.299H23.7757V24.9375C25.1343 24.6465 26.1886 24.0981 26.797 23.3396C27.3663 22.6293 27.5005 21.7721 27.1746 20.9237C26.9071 20.229 26.3161 19.8765 25.591 19.9849C24.3241 20.1726 22.913 21.8092 22.913 23.8569V24.3103C21.8648 24.4432 20.8007 24.4432 19.7525 24.3103V23.8569C19.7525 21.8092 18.3414 20.1726 17.0746 19.9849C16.3519 19.878 15.7618 20.229 15.491 20.9237C15.1651 21.7721 15.2993 22.6308 15.8694 23.3396C16.4778 24.0981 17.5321 24.6465 18.8907 24.9375V33.2975H17.0329V31.3515C17.033 31.281 17.0112 31.2118 16.9699 31.1517C16.9285 31.0915 16.8693 31.0428 16.7987 31.0108C15.2979 30.3314 14.0135 29.3263 13.064 28.0883C12.1145 26.8503 11.5306 25.4192 11.366 23.9272C11.2015 22.4352 11.4617 20.9303 12.1226 19.5515C12.7835 18.1726 13.8239 16.9643 15.1476 16.0379H27.528C28.7251 16.8697 29.6926 17.9344 30.3564 19.1505C31.0202 20.3665 31.3628 21.7017 31.3578 23.0538L31.3612 23.0553ZM23.7765 24.1522V23.8554C23.7765 22.1298 24.9376 20.8562 25.7369 20.7382C25.7737 20.7317 25.811 20.7282 25.8485 20.7278C25.9969 20.7278 26.2169 20.7894 26.3628 21.1731C26.6003 21.7899 26.5087 22.3858 26.0994 22.8965C25.636 23.4694 24.8309 23.8984 23.7757 24.1508L23.7765 24.1522ZM28.4115 15.2749H14.2632V9.26322L21.1703 11.875C21.223 11.8949 21.2797 11.9051 21.3369 11.9051C21.3942 11.9051 21.4509 11.8949 21.5036 11.875L28.4098 9.26322L28.4115 15.2749ZM33.539 16.1054C33.5557 15.2349 33.7266 14.0221 34.1841 13.602C34.2546 13.5308 34.3506 13.4836 34.4558 13.4685H34.5H34.545C34.6501 13.484 34.746 13.5311 34.8167 13.602C35.2743 14.0221 35.4452 15.2349 35.4619 16.1054H33.539Z" fill="#29A354"/>
</svg>
